<svg id="Layer_1" data-name="Layer 1" xmlns="http://www.w3.org/2000/svg" viewBox="0 0 493.7 147.09"><defs><style>.cls-1{fill:#e1251b;}.cls-2{fill:#231f20;}.cls-3{fill:#fff;}</style></defs><path class="cls-1" d="M291.11,319.05A11.12,11.12,0,1,1,280,307.78a11.12,11.12,0,0,1,11.11,11.27Z" transform="translate(-225.97 -197.64)"/><ellipse class="cls-1" cx="146.01" cy="121.41" rx="11.12" ry="11.26"/><path class="cls-1" d="M279.33,245.12a2.57,2.57,0,0,1,.62-2,2.52,2.52,0,0,1,1.9-.87H312a2.52,2.52,0,0,1,2.2,1.29,2.62,2.62,0,0,1,0,2.57l-15.53,27.26a2.53,2.53,0,0,1-3.45,1,2.63,2.63,0,0,1-.4-.28,45.65,45.65,0,0,1-15.34-27.68C279.44,246.07,279.39,245.62,279.33,245.12Zm48.78,39.61a44.08,44.08,0,0,1-21.69-3.44,2.56,2.56,0,0,1-1.42-1.55,2.61,2.61,0,0,1,.21-2.1l18-31.53a2.52,2.52,0,0,1,4.4,0L345,276.63a2.55,2.55,0,0,1-1.07,3.56,44.62,44.62,0,0,1-15.82,4.54Zm30.51-16.28a45.62,45.62,0,0,1-3.53,3.83A2.5,2.5,0,0,1,353,273a2.53,2.53,0,0,1-1.84-1.26L336.55,246.1a2.57,2.57,0,0,1,0-2.57,2.52,2.52,0,0,1,2.2-1.29h27.39a2.54,2.54,0,0,1,1.91.87,2.65,2.65,0,0,1,.62,2,45.73,45.73,0,0,1-10.05,23.34Z" transform="translate(-225.97 -197.64)"/><path class="cls-1" d="M377.64,242.24c-1.78,26-22,47.68-48.41,50.15-29.33,2.74-55.43-19.23-58.13-49C268.65,216.51,251.36,199,226,197.78v18.73c15.69,1.15,25.19,11.25,26.77,28.6,3.43,37.73,34.84,66.16,71.54,66.16q3.29,0,6.65-.31c36-3.36,63.38-33.2,65.18-68.75Z" transform="translate(-225.97 -197.64)"/><path class="cls-2" d="M599.87,308.2c-.56,2.78-2.47,3.19-4.58,3.4h-.22c-2.17-.06-4.05-.68-4.58-3.37V274.45H563.25c.21,13.93-1.12,34.27,2.1,43.81,1.52,5.17,6,11.15,11.83,12.91,5.91,2,13.06.34,17.89-2.85a14,14,0,0,0,4.71-4.89l.06,21.3,27.18-6.5V274.45H599.84Z" transform="translate(-225.97 -197.64)"/><path class="cls-2" d="M531.11,267H698.59l3.69-6.37,8.79-15.23H488.27c0-9.75-1-20.47,6.87-26.66.74,3.16.62,6.5,2,9.35a12.56,12.56,0,0,0,7.89,6.5c6.07.93,13,.1,16.91-5.26A17.09,17.09,0,0,0,523.16,214a22.54,22.54,0,0,0-9.14-9.75c-9.22-6.31-23.71-5.48-33.46-.74-17.12,7.12-22.88,25.2-24.15,42H433.62L421.18,267l35.23.19v63l31.92.06V267Z" transform="translate(-225.97 -197.64)"/><path class="cls-2" d="M548.36,271.42c-6.1-1.21-12.33,1-17.25,4l-2,1.3V274.4H502v55.85h27.18c0-12.51-.31-26.35,1-38.82a26,26,0,0,1,.93-3,5.3,5.3,0,0,1,2.54-3c.93,8.85,7.28,13.47,13.13,13.12a13,13,0,0,0,11.27-6.15,13.74,13.74,0,0,0-.44-15.61C555.51,273.12,550.59,271.57,548.36,271.42Z" transform="translate(-225.97 -197.64)"/><polygon class="cls-2" points="435.07 76.81 433 76.81 418.54 76.84 409.75 76.87 418.54 92.08 422.38 98.73 433 80.4 435.07 76.81"/><path class="cls-2" d="M715.65,303.8c-3-7-9.19-11.61-17.43-13.56-2.63-.59-5.51-1-8.2-1.8a13.2,13.2,0,0,1-5.11-2.29c-.89-1-.4-2.26.93-2.72,5.48-1.89,17.9-.65,27.71,4l3-9.56c-6.71-4.15-13.83-6-21.61-7-12-1.15-23.83,1.36-32,10.77a20.29,20.29,0,0,0-4,8.95,18.24,18.24,0,0,0,0,6.75,15.07,15.07,0,0,0,.43,1.73c3.35,8,12.14,9.16,19.17,11.49,6.4,1.45,10.86,1.52,12.84,2.78,1.06,1.58.62,3.22-1.79,3.6a49.47,49.47,0,0,1-28.14-6.1L659,317.21l-2.11,5.26c.72.49,1.4.93,2.11,1.36a78.15,78.15,0,0,0,8.82,4.43c13.75,5.44,32.76,6.59,43.78-5.58a22,22,0,0,0,5.08-12.94V309A15.93,15.93,0,0,0,715.65,303.8Z" transform="translate(-225.97 -197.64)"/><path class="cls-1" d="M527.8,265H695.28l3.68-6.37,8.79-15.24H485c0-9.75-1-20.46,6.87-26.65.74,3.15.62,6.5,2,9.35a12.67,12.67,0,0,0,7.9,6.5c6.06.93,13,.09,16.9-5.26,2.72-4.18,3.44-10.71,1.24-15.42a22.51,22.51,0,0,0-9.13-9.75c-9.23-6.32-23.72-5.48-33.47-.74-17.12,7.12-22.88,25.2-24.15,42H430.31L417.86,265l35.23.19v63l31.92.06V265Z" transform="translate(-225.97 -197.64)"/><path class="cls-1" d="M596.56,306.12c-.56,2.79-2.48,3.19-4.59,3.41h-.21c-2.17,0-4.06-.67-4.59-3.37V272.38H559.93c.22,13.93-1.11,34.27,2.11,43.8,1.51,5.17,6,11.15,11.82,12.91,5.92,2,13.07.34,17.9-2.85a13.68,13.68,0,0,0,4.7-4.89l.06,21.3,27.19-6.5V272.38H596.52Z" transform="translate(-225.97 -197.64)"/><path class="cls-1" d="M545,269.34c-6.1-1.2-12.32,1-17.24,4-.68.43-1.34.87-2,1.3v-2.32H498.63V328.2h27.19c0-12.51-.31-26.35,1-38.83a22.62,22.62,0,0,1,.93-3,5.28,5.28,0,0,1,2.53-3c.93,8.85,7.28,13.46,13.13,13.13a13,13,0,0,0,11.27-6.17,13.74,13.74,0,0,0-.43-15.6C552.19,271.05,547.27,269.5,545,269.34Z" transform="translate(-225.97 -197.64)"/><path class="cls-1" d="M712.34,301.73c-3-7-9.2-11.61-17.43-13.56-2.63-.59-5.51-1-8.2-1.8a13.2,13.2,0,0,1-5.11-2.29c-.9-1.05-.4-2.26.93-2.73,5.47-1.88,17.89-.64,27.7,4l3-9.57c-6.72-4.14-13.84-6-21.61-7-12-1.15-23.84,1.36-32,10.77a20.19,20.19,0,0,0-4,8.94,18.24,18.24,0,0,0,0,6.75,14.77,14.77,0,0,0,.44,1.74c3.34,8,12.13,9.17,19.16,11.49,6.41,1.45,10.87,1.51,12.85,2.78,1,1.58.62,3.22-1.8,3.59a49.39,49.39,0,0,1-28.14-6.1l-2.51,6.38-2.1,5.27c.71.49,1.39.92,2.1,1.36a79.07,79.07,0,0,0,8.83,4.42c13.74,5.45,32.75,6.6,43.77-5.57a22,22,0,0,0,5.08-12.94V307A15.55,15.55,0,0,0,712.34,301.73Z" transform="translate(-225.97 -197.64)"/><polygon class="cls-1" points="431.76 74.74 429.68 74.74 415.23 74.77 406.43 74.8 415.23 90 419.07 96.66 429.68 78.33 431.76 74.74"/><path class="cls-3" d="M495.49,263.09V261.9H497a2.13,2.13,0,0,0,.71-.08l.22-.16c.05-.07.07-.16.12-.22a4.81,4.81,0,0,0,.07-1V249.36c0-.4,0-.94-.51-1.07a5.19,5.19,0,0,0-1.42-.14h-.64V247h16.19l.17,5.87h-1.22c-.84-3-2.26-4.66-5.84-4.66a3.83,3.83,0,0,0-2.06.31c-.35.27-.3.76-.3,1.11v4.6c2.63.09,3.36-.91,3.88-3.1h1.25v7.72h-1.25a4.37,4.37,0,0,0-.42-1.63,3,3,0,0,0-3.21-1.8h-.25v5c0,1.18,0,1.45,1.4,1.5l1.55.06v1.19Z" transform="translate(-225.97 -197.64)"/><path class="cls-3" d="M518.49,255.21a12.62,12.62,0,0,0,.93,4.86,3.9,3.9,0,0,0,3.83,2.26c2.94,0,3.46-2.68,3.85-4.75a14.3,14.3,0,0,0,.19-2.53c0-2.61-.44-7.26-4.34-7.26C518.78,247.79,518.49,252.44,518.49,255.21Zm-2.29,5.73a8.5,8.5,0,0,1-2.57-5.85,8,8,0,0,1,2.75-6.11,10,10,0,0,1,6.42-2.34,9.35,9.35,0,0,1,6.7,2.43,8.19,8.19,0,0,1,2.65,6,8.4,8.4,0,0,1-2.87,6.11,9.42,9.42,0,0,1-6.62,2.28A9.17,9.17,0,0,1,516.2,260.94Z" transform="translate(-225.97 -197.64)"/><path class="cls-3" d="M538.92,255.21a12.63,12.63,0,0,0,.94,4.86,3.88,3.88,0,0,0,3.82,2.26c3,0,3.46-2.68,3.86-4.75a15.31,15.31,0,0,0,.19-2.53c0-2.61-.44-7.26-4.34-7.26C539.22,247.79,538.92,252.44,538.92,255.21Zm-2.28,5.73a8.5,8.5,0,0,1-2.57-5.85,8,8,0,0,1,2.75-6.11,10,10,0,0,1,6.42-2.34,9.35,9.35,0,0,1,6.7,2.43,8.19,8.19,0,0,1,2.65,6,8.4,8.4,0,0,1-2.87,6.11,9.46,9.46,0,0,1-6.62,2.28,9.17,9.17,0,0,1-6.46-2.52Z" transform="translate(-225.97 -197.64)"/><path class="cls-3" d="M560.93,260.14a2.28,2.28,0,0,0,.25,1.45,2.87,2.87,0,0,0,1.47.31c4,0,4.93-1.92,5.4-5.18a12.74,12.74,0,0,0,.1-1.63,14.88,14.88,0,0,0-.2-2.58c-.54-2.88-1.82-4.4-5.18-4.4a2.78,2.78,0,0,0-1.62.38c-.24.2-.22.69-.22.95ZM554,263.09V261.9a16.64,16.64,0,0,0,2-.08.56.56,0,0,0,.29-.16.58.58,0,0,0,.2-.31,2.11,2.11,0,0,0,.07-.79V249a.65.65,0,0,0-.49-.72,4.85,4.85,0,0,0-1.47-.11H554V247h8.37l2.28.05a8.88,8.88,0,0,1,3.46.55,8.2,8.2,0,0,1,2.7,1.63,7.67,7.67,0,0,1,2.18,5.65,9.2,9.2,0,0,1-.88,4.13,7.39,7.39,0,0,1-4.1,3.55,16.32,16.32,0,0,1-5.25.56Z" transform="translate(-225.97 -197.64)"/><path class="cls-3" d="M586.29,257h1.19c1,2.55,3.32,5.27,6.61,5.27,1.71,0,3.56-.74,3.56-2.54,0-1.5-1.16-2.1-2.63-2.35l-1.77-.31a11.61,11.61,0,0,1-4.88-1.65,4.48,4.48,0,0,1-2.08-3.69c0-3.43,3-5.08,6.5-5.08a7.84,7.84,0,0,1,4.29,1.22l1.32-1.09h1.06l.32,5.85h-1.23c-.9-2.39-3-4.83-6.08-4.83-1.55,0-3.37.7-3.37,2.33s1.63,2,3,2.32l1.54.27c3.54.66,6.87,1.6,6.87,5.51a5,5,0,0,1-2.06,4,7.74,7.74,0,0,1-4.51,1.22,8.29,8.29,0,0,1-4.89-1.5l-1.54,1.37h-1.08Z" transform="translate(-225.97 -197.64)"/><path class="cls-3" d="M601.77,253l.39-6.05h16.22l.37,6.05h-1.23c-.34-2.08-1.47-5-4.24-5-.3,0-.81.08-.84.42s0,.65,0,1v11.3c0,.8,0,1,.93,1.12.61.06,1.25,0,1.87,0V263H605.3V261.9c.74,0,1.45-.06,2.16-.13a.61.61,0,0,0,.49-.45,2,2,0,0,0,.1-.84V248.43c0-.35-.54-.43-.84-.43-2.75,0-3.9,3-4.22,5Z" transform="translate(-225.97 -197.64)"/><path class="cls-3" d="M624.93,255.21a12.63,12.63,0,0,0,.94,4.86,3.88,3.88,0,0,0,3.82,2.26c2.95,0,3.46-2.68,3.86-4.75a15.31,15.31,0,0,0,.19-2.53c0-2.61-.44-7.26-4.34-7.26C625.23,247.79,624.93,252.44,624.93,255.21Zm-2.28,5.73a8.5,8.5,0,0,1-2.57-5.85,8,8,0,0,1,2.75-6.11,10,10,0,0,1,6.42-2.34,9.35,9.35,0,0,1,6.7,2.43,8.19,8.19,0,0,1,2.65,6,8.4,8.4,0,0,1-2.87,6.11,9.42,9.42,0,0,1-6.62,2.28,9.17,9.17,0,0,1-6.46-2.52Z" transform="translate(-225.97 -197.64)"/><path class="cls-3" d="M647,254.16h2c2.4-.06,3.77-.78,3.77-3.19,0-2.16-1.22-2.81-3.46-2.81a6,6,0,0,0-1.79.15c-.46.25-.49.83-.49,1.28Zm2.75-7.19,1.84.05a7.73,7.73,0,0,1,4,.89,3.75,3.75,0,0,1,1.79,3.08c0,2.76-2.62,3.84-5.27,4h0a4.26,4.26,0,0,1,3.68,3.35l.39,1.4a6.12,6.12,0,0,0,.49,1.46.92.92,0,0,0,.22.26c1.26.45,1.4-1.36,1.48-2.07h1.22a4.47,4.47,0,0,1-.15,1.31c-.39,1.93-2.15,2.66-4.14,2.66a4,4,0,0,1-2.8-1,3.46,3.46,0,0,1-.93-2.37l-.1-1.34c-.15-1.88-.27-3.22-2.6-3.35H647v5.14q0,.38,0,.75c.12.45.27.59.78.61a12.37,12.37,0,0,1,1.28.06h.61v1.19H640V261.9h1.35c1.17,0,1.17-.4,1.22-1.32V250.23c0-.38.1-1.52-.19-1.79s-1-.26-1.6-.29H640V247Z" transform="translate(-225.97 -197.64)"/><path class="cls-3" d="M660,263.09V261.9c.66-.06,2.31.25,2.53-.58a2.05,2.05,0,0,0,.07-.78v-11.4a.86.86,0,0,0-.07-.5.55.55,0,0,0-.47-.38,10.91,10.91,0,0,0-2.06-.11V247h16.51l.18,5.8h-1.23c-1.06-3.26-2.28-4.64-6.21-4.64a4.48,4.48,0,0,0-1.74.25.78.78,0,0,0-.4.44A2.58,2.58,0,0,0,667,250v4.22a3.25,3.25,0,0,0,3.81-2.57,3.05,3.05,0,0,0,.06-.6h1.26l.09,7.77h-1.32c-.1-2.14-1.45-3.48-3.9-3.42v4.89c0,1,0,1.45,1.15,1.57.44,0,.88.08,1.33.08,3.87,0,5.25-1.58,6.28-4.82l1.22.09-.26,5.92Z" transform="translate(-225.97 -197.64)"/><path class="cls-3" d="M679.43,257h1.2c1,2.55,3.32,5.27,6.6,5.27,1.72,0,3.56-.74,3.56-2.54,0-1.5-1.15-2.1-2.63-2.35l-1.76-.31a11.7,11.7,0,0,1-4.89-1.65,4.53,4.53,0,0,1-2.08-3.69c0-3.43,3-5.08,6.5-5.08a7.89,7.89,0,0,1,4.3,1.22l1.32-1.09h1.05l.33,5.85H691.7c-.91-2.39-3-4.83-6.08-4.83-1.55,0-3.37.7-3.37,2.33s1.62,2,3,2.32l1.55.27c3.53.66,6.87,1.6,6.87,5.51a5,5,0,0,1-2.06,4,7.74,7.74,0,0,1-4.51,1.22,8.29,8.29,0,0,1-4.89-1.5l-1.54,1.37h-1.08Z" transform="translate(-225.97 -197.64)"/><path class="cls-2" d="M707.29,262.24a6.16,6.16,0,1,1,0,.06Zm10.9,0a4.72,4.72,0,1,0-4.72,4.72h0a4.6,4.6,0,0,0,4.71-4.49Zm-1.75,3.14h-1.56l-1.44-2.71h-1v2.71H711V259h3.12c1.49,0,2.5.26,2.5,2,0,1.19-.61,1.67-1.75,1.76Zm-2.28-3.69c.72,0,1.13-.15,1.13-1s-.83-.66-1.46-.66h-1.38v1.62Z" transform="translate(-225.97 -197.64)"/></svg>